<svg width="401" height="151" viewBox="0 0 401 151" fill="none" xmlns="http://www.w3.org/2000/svg">
<path d="M129.498 26.2982H149.781V124H129.498V26.2982ZM236.646 124H160.619V106.766L211.061 43.5982H161.879V26.2982H236.514V42.6702L185.409 106.766H236.646V124ZM320.132 26.2982V43.5982H290.901V124H270.353V43.5982H240.989V26.2982H320.132Z" fill="#004E89"/>
<path d="M369.543 104.463H333.551L326.79 124.547H305.447L340.312 26.8451H363.378L397.978 124.547H375.84L369.543 104.463ZM363.842 87.627L351.646 49.1826L339.052 87.627H363.842Z" fill="#004E89"/>
<mask id="mask0_224_1875" style="mask-type:luminance" maskUnits="userSpaceOnUse" x="0" y="0" width="85" height="151">
<path d="M0 0H84.8428V151H0V0Z" fill="white"/>
</mask>
<g mask="url(#mask0_224_1875)">
<path d="M84.8787 150.819V0.308594H65.327V32.9177L50.7979 3.71548L32.8442 12.6499L50.4389 48.0208L17.023 26.9443L6.33277 43.9136L40.6463 65.5287H0.0891113V85.5815H37.9377L5.1669 104.506L15.1745 121.868L45.2565 104.506L26.7445 133.886L43.6961 144.578L65.327 110.262V150.819H84.8787Z" fill="url(#paint0_linear_224_1875)"/>
</g>
<defs>
<linearGradient id="paint0_linear_224_1875" x1="42.4839" y1="0.308594" x2="42.4839" y2="150.819" gradientUnits="userSpaceOnUse">
<stop stop-color="#E28A69"/>
<stop offset="1" stop-color="#004E89"/>
</linearGradient>
</defs>
</svg>
